inDegrees=yes
name=ik_S52_A07_T02
DataType=double
version=3
OpenSimVersion=4.3-2021-08-27-4bc7ad9
endheader
time	pelvis_tilt	pelvis_list	pelvis_rotation	pelvis_tx	pelvis_ty	pelvis_tz	hip_flexion_r	hip_adduction_r	hip_rotation_r	knee_angle_r	knee_angle_r_beta	ankle_angle_r	subtalar_angle_r	mtp_angle_r	hip_flexion_l	hip_adduction_l	hip_rotation_l	knee_angle_l	knee_angle_l_beta	ankle_angle_l	subtalar_angle_l	mtp_angle_l	lumbar_extension	lumbar_bending	lumbar_rotation	arm_flex_r	arm_add_r	arm_rot_r	elbow_flex_r	pro_sup_r	wrist_flex_r	wrist_dev_r	arm_flex_l	arm_add_l	arm_rot_l	elbow_flex_l	pro_sup_l	wrist_flex_l	wrist_dev_l
7.299999999999932	-5.114555513485953	-0.9734205416853592	18.88569140275434	0	0.9399999999999999	0	34.9093346881904	-13.83968459069856	-10.46894096945525	51.20825259157949	0.8937526119159812	0	0	0	34.9093346881904	-13.83968459069856	-10.46894096945525	51.20825259157949	0.8937526119159812	0	0	0	-1.849815174739143	-2.685071543377433	2.502710628879274	61.51471153421301	-8.402331158644715	-6.101149170658943	42.38870322425249	108.0039767196322	0	0	26.92296373677205	-10.01712932106575	-12.60845184228812	45.74800477512684	121.2778183652366	0	0
7.319999999999932	-5.116570861404376	-0.9723619157541696	18.89041992317326	0	0.9399999999999999	0	34.91732311552367	-13.82528958658848	-10.46795856030924	51.21008850466351	0.8937846546440777	0	0	0	34.91732311552367	-13.82528958658848	-10.46795856030924	51.21008850466351	0.8937846546440777	0	0	0	-1.853069714123885	-2.681663700432794	2.500843741636776	61.50906174939485	-8.409351985744308	-6.109634030409037	42.40111967447722	107.9965619521732	0	0	26.91592148030822	-10.02739660154858	-12.62843484346512	45.76502273522031	121.2628098530362	0	0
7.339999999999931	-5.137595693125231	-0.9707728796773865	19.0800296308898	0	0.9399999999999999	0	34.92323595825626	-13.81763614502116	-10.46736023887327	51.21157572424988	0.89381061152256	0	0	0	34.92323595825626	-13.81763614502116	-10.46736023887327	51.21157572424988	0.89381061152256	0	0	0	-1.873943669611155	-2.666500023960847	2.33299721303169	60.72163316205983	-8.772608670404521	-5.453965915007873	46.06215809375243	107.7173410051647	0	0	26.95193788999684	-10.01503190991028	-12.61925555398154	45.73036821051198	121.1720547513621	0	0
7.359999999999931	-5.136742287300602	-0.957171305703046	19.0493465479571	0	0.9399999999999999	0	34.92716756323973	-13.81250172332644	-10.46696003515262	51.21255504136171	0.8938277038305826	0	0	0	34.92716756323973	-13.81250172332644	-10.46696003515262	51.21255504136171	0.8938277038305826	0	0	0	-1.869341717244746	-2.653923559281016	2.360713625471904	60.30248757176111	-8.96121568016007	-5.522753330443627	46.50093992862033	107.6362938974053	0	0	26.84136319985797	-10.00633651194938	-12.71896201465321	45.81262802796581	121.1994552049983	0	0
7.379999999999931	-5.149176531580975	-0.9384139100521486	18.8158208848978	0	0.9399999999999999	0	34.93153246785224	-13.80693164850834	-10.46652216200361	51.21366566106124	0.893847087801077	0	0	0	34.93153246785224	-13.80693164850834	-10.46652216200361	51.21366566106124	0.893847087801077	0	0	0	-1.874451003364413	-2.639941342068636	2.561526415281677	59.96695161172352	-9.281154731998292	-5.57735434137417	48.61480210915374	107.8777634635683	0	0	26.8276317556357	-9.988116658055603	-12.78127258569095	45.84416770174257	121.206319987891	0	0
7.39999999999993	-5.148840602139196	-0.923398949027857	18.58364657395305	0	0.9399999999999999	0	34.93714783638608	-13.79971299393345	-10.4659560933451	51.21508329397039	0.8938718301629262	0	0	0	34.93714783638608	-13.79971299393345	-10.4659560933451	51.21508329397039	0.8938718301629262	0	0	0	-1.867898627886021	-2.634941090335028	2.769729717681439	59.65050521310224	-9.670983803808054	-5.600865746407147	51.07376948781096	107.798043733298	0	0	26.79237032867487	-9.997409986410785	-12.80841223210089	45.86017836742573	121.1937485621116	0	0
7.41999999999993	-5.165872999349284	-0.9004792093084755	18.50223573011604	0	0.9399999999999999	0	34.94120670089486	-13.79439644580182	-10.4655418983511	51.21608851416107	0.8938893745649611	0	0	0	34.94120670089486	-13.79439644580182	-10.4655418983511	51.21608851416107	0.8938893745649611	0	0	0	-1.877545214030073	-2.607440391050894	2.783856017254514	59.46775933979261	-10.00297858680589	-5.705505084766031	51.35914187056186	107.6582738115434	0	0	26.75938028566324	-9.987945138524589	-12.83629226362318	45.85737120318996	121.2669778561981	0	0
